<?xml version="1.0" encoding="UTF-8" standalone="no"?>
<svg
   id="Layer_1"
   version="1.1"
   viewBox="0 0 955.69128 918.5517"
   sodipodi:docname="sticker-paw-blue.svg"
   width="955.69128"
   height="918.5517"
   inkscape:version="1.4.2 (ebf0e940d0, 2025-05-08)"
   xmlns:inkscape="http://www.inkscape.org/namespaces/inkscape"
   xmlns:sodipodi="http://sodipodi.sourceforge.net/DTD/sodipodi-0.dtd"
   xmlns="http://www.w3.org/2000/svg"
   xmlns:svg="http://www.w3.org/2000/svg">
  <sodipodi:namedview
     id="namedview10"
     pagecolor="#505050"
     bordercolor="#ffffff"
     borderopacity="1"
     inkscape:showpageshadow="0"
     inkscape:pageopacity="0"
     inkscape:pagecheckerboard="1"
     inkscape:deskcolor="#505050"
     inkscape:zoom="0.3118487"
     inkscape:cx="105.82055"
     inkscape:cy="242.10459"
     inkscape:window-width="1648"
     inkscape:window-height="1038"
     inkscape:window-x="0"
     inkscape:window-y="0"
     inkscape:window-maximized="1"
     inkscape:current-layer="Layer_1" />
  <!-- Generator: Adobe Illustrator 29.1.0, SVG Export Plug-In . SVG Version: 2.1.0 Build 142)  -->
  <defs
     id="defs1">
    <style
       id="style1">
      .st0 {
        fill: #091f3e;
      }

      .st1 {
        fill: #0a1f3e;
        stroke: #fff;
        stroke-linecap: round;
        stroke-linejoin: round;
        stroke-width: 137.39px;
      }
    </style>
  </defs>
  <g
     id="g5"
     transform="rotate(15,835.56724,159.20598)">
    <path
       class="st1"
       d="m 633.46,913.09 c -34.09,-18.54 -80.06,-19.64 -126.17,-23.11 -25.57,-1.92 -50.33,-13.37 -75.72,-19.38 -15.46,-3.66 -31.54,-7.66 -47.17,-7.08 -34.66,1.29 -67.86,-0.67 -98,-20.41 -34.51,-22.6 -48.73,-54.3 -45.74,-95.04 2.04,-27.69 11.54,-51.8 29.93,-72.53 6.94,-7.83 12.89,-16.65 20.45,-23.79 32.24,-30.46 57.19,-65.94 79.41,-104.34 30.07,-51.97 78.34,-61.81 128.16,-27.75 24.46,16.72 49.12,22.54 78.46,17.34 19.66,-3.49 40.62,-3.48 60.49,-0.97 21.51,2.72 38.72,17.92 39.92,39.07 4.29,75.94 41.11,142.39 58.89,214.26 3.01,12.17 5.53,24.53 7.32,36.93 8.72,60.23 -42.71,105.17 -110.24,86.8 v 0 z"
       id="path1" />
    <path
       class="st1"
       d="m 801.96,387.27 c -9.45,43.6 -21.86,77.2 -57.02,97.63 -33.94,19.72 -68.71,17.16 -101.49,-3.94 -58.22,-37.48 -59,-102.72 -34.93,-146.28 16.9,-30.59 34.79,-61.02 55.79,-88.84 22.4,-29.68 54.87,-46.63 91.09,-54.89 20.37,-4.64 31.19,1.72 36.2,24.55 12.92,58.92 23.05,118.29 10.36,171.76 v 0 z"
       id="path2" />
    <path
       class="st1"
       d="m 435.52,456.75 c -54.27,-11.73 -86.28,-56.96 -79.98,-110.04 8.17,-68.83 38.48,-125.42 95.91,-166.09 5.99,-4.24 11.83,-8.69 17.88,-12.83 22.33,-15.3 42.13,-12.8 49.66,12.73 14.26,48.31 34.35,96.45 30.79,148.04 -3.09,44.72 -25.11,82.82 -54.05,116.18 -17.7,20.41 -41.81,14.94 -60.21,12 v 0 z"
       id="path3" />
    <path
       class="st1"
       d="m 135.03,384.49 c -0.18,0.79 0.41,-2.84 1.44,-6.34 17.19,-58.26 38.13,-67.82 92.78,-41.32 18.3,8.87 36.23,18.74 53.43,29.57 44.15,27.8 63.95,100.18 43.89,150.21 -16.88,42.1 -49.82,57.35 -91.32,58.19 -42.11,0.86 -74.49,-16.74 -94.26,-55.55 -15.18,-29.79 -17.26,-60.94 -12.62,-93.17 1.79,-12.42 3.96,-24.79 6.66,-41.58 v 0 z"
       id="path4" />
    <path
       class="st1"
       d="m 971.3,504.48 c -15.31,43.12 -24.4,93.6 -56.43,134.16 -12.57,15.91 -27.21,30.33 -41.91,44.39 -25.26,24.15 -54.09,21.71 -83.12,8.17 -31.52,-14.71 -50.61,-38.64 -49.78,-74.87 0.82,-35.64 17.52,-65.4 42.72,-88.08 28.23,-25.41 59.6,-47.71 91.35,-68.72 20.82,-13.77 46.13,-13.52 70.12,-8.19 26.8,5.95 35.16,21.85 27.05,53.14 z"
       id="path5" />
  </g>
  <g
     id="g10"
     transform="rotate(15,835.56724,159.20598)">
    <path
       class="st0"
       d="m 633.46,913.09 c -34.09,-18.54 -80.06,-19.64 -126.17,-23.11 -25.57,-1.92 -50.33,-13.37 -75.72,-19.38 -15.46,-3.66 -31.54,-7.66 -47.17,-7.08 -34.66,1.29 -67.86,-0.67 -98,-20.41 -34.51,-22.6 -48.73,-54.3 -45.74,-95.04 2.04,-27.69 11.54,-51.8 29.93,-72.53 6.94,-7.83 12.89,-16.65 20.45,-23.79 32.24,-30.46 57.19,-65.94 79.41,-104.34 30.07,-51.97 78.34,-61.81 128.16,-27.75 24.46,16.72 49.12,22.54 78.46,17.34 19.66,-3.49 40.62,-3.48 60.49,-0.97 21.51,2.72 38.72,17.92 39.92,39.07 4.29,75.94 41.11,142.39 58.89,214.26 3.01,12.17 5.53,24.53 7.32,36.93 8.72,60.23 -42.71,105.17 -110.24,86.8 v 0 z"
       id="path6" />
    <path
       class="st0"
       d="m 801.96,387.27 c -9.45,43.6 -21.86,77.2 -57.02,97.63 -33.94,19.72 -68.71,17.16 -101.49,-3.94 -58.22,-37.48 -59,-102.72 -34.93,-146.28 16.9,-30.59 34.79,-61.02 55.79,-88.84 22.4,-29.68 54.87,-46.63 91.09,-54.89 20.37,-4.64 31.19,1.72 36.2,24.55 12.92,58.92 23.05,118.29 10.36,171.76 v 0 z"
       id="path7" />
    <path
       class="st0"
       d="m 435.52,456.75 c -54.27,-11.73 -86.28,-56.96 -79.98,-110.04 8.17,-68.83 38.48,-125.42 95.91,-166.09 5.99,-4.24 11.83,-8.69 17.88,-12.83 22.33,-15.3 42.13,-12.8 49.66,12.73 14.26,48.31 34.35,96.45 30.79,148.04 -3.09,44.72 -25.11,82.82 -54.05,116.18 -17.7,20.41 -41.81,14.94 -60.21,12 v 0 z"
       id="path8" />
    <path
       class="st0"
       d="m 135.03,384.49 c -0.18,0.79 0.41,-2.84 1.44,-6.34 17.19,-58.26 38.13,-67.82 92.78,-41.32 18.3,8.87 36.23,18.74 53.43,29.57 44.15,27.8 63.95,100.18 43.89,150.21 -16.88,42.1 -49.82,57.35 -91.32,58.19 -42.11,0.86 -74.49,-16.74 -94.26,-55.55 -15.18,-29.79 -17.26,-60.94 -12.62,-93.17 1.79,-12.42 3.96,-24.79 6.66,-41.58 v 0 z"
       id="path9" />
    <path
       class="st0"
       d="m 971.3,504.48 c -15.31,43.12 -24.4,93.6 -56.43,134.16 -12.57,15.91 -27.21,30.33 -41.91,44.39 -25.26,24.15 -54.09,21.71 -83.12,8.17 -31.52,-14.71 -50.61,-38.64 -49.78,-74.87 0.82,-35.64 17.52,-65.4 42.72,-88.08 28.23,-25.41 59.6,-47.71 91.35,-68.72 20.82,-13.77 46.13,-13.52 70.12,-8.19 26.8,5.95 35.16,21.85 27.05,53.14 z"
       id="path10" />
  </g>
</svg>
